<?xml version="1.0" encoding="UTF-8" standalone="no"?>
<!-- Created with Inkscape (http://www.inkscape.org/) -->

<svg
   xmlns:dc="http://purl.org/dc/elements/1.1/"
   xmlns:cc="http://creativecommons.org/ns#"
   xmlns:rdf="http://www.w3.org/1999/02/22-rdf-syntax-ns#"
   xmlns:svg="http://www.w3.org/2000/svg"
   xmlns="http://www.w3.org/2000/svg"
   xmlns:sodipodi="http://sodipodi.sourceforge.net/DTD/sodipodi-0.dtd"
   xmlns:inkscape="http://www.inkscape.org/namespaces/inkscape"
   version="1.1"
   id="svg2"
   xml:space="preserve"
   width="57.915726mm"
   height="15.000011mm"
   viewBox="0 0 218.89407 56.692954"
   sodipodi:docname="Logo-POXIM-KiCAD_schematic_sheet.svg"
   inkscape:version="0.92.2 5c3e80d, 2017-08-06"
   inkscape:export-filename="/Users/arthuradmiraal/Documents/POxiM/POxiM Electronics/POxiM-libraries/Graphics/Logo-POXIM-KiCAD_schematic_sheet_2000dpi.png"
   inkscape:export-xdpi="2000"
   inkscape:export-ydpi="2000"><metadata
     id="metadata8"><rdf:RDF><cc:Work
         rdf:about=""><dc:format>image/svg+xml</dc:format><dc:type
           rdf:resource="http://purl.org/dc/dcmitype/StillImage" /><dc:title></dc:title></cc:Work></rdf:RDF></metadata><defs
     id="defs6" /><sodipodi:namedview
     pagecolor="#ffffff"
     bordercolor="#666666"
     borderopacity="1"
     objecttolerance="10"
     gridtolerance="10"
     guidetolerance="10"
     inkscape:pageopacity="0"
     inkscape:pageshadow="2"
     inkscape:window-width="1439"
     inkscape:window-height="801"
     id="namedview4"
     showgrid="false"
     inkscape:zoom="2.2883801"
     inkscape:cx="-5.9535721"
     inkscape:cy="7.2494603"
     inkscape:window-x="0"
     inkscape:window-y="0"
     inkscape:window-maximized="0"
     inkscape:current-layer="g10"
     fit-margin-top="1"
     fit-margin-left="1"
     fit-margin-right="1"
     fit-margin-bottom="1"
     units="mm" /><g
     id="g10"
     inkscape:groupmode="layer"
     inkscape:label="ink_ext_XXXXXX"
     transform="matrix(1.3333333,0,0,-1.3333333,-933.72688,270.87706)"><path
       style="fill:#860000;fill-opacity:1;fill-rule:nonzero;stroke:none;stroke-width:0.01440809"
       d="M 68.822266 3.7792969 C 62.621159 3.7792969 57.595201 5.7462011 53.742188 9.6777344 C 49.888601 13.609708 47.962891 18.586569 47.962891 24.607422 L 47.962891 32.085938 C 47.962891 38.130137 49.893133 43.112843 53.757812 47.033203 C 57.621919 50.954243 62.667052 52.914062 68.890625 52.914062 C 75.069105 52.914062 80.07347 50.954243 83.904297 47.033203 C 87.734683 43.112843 89.650391 38.130137 89.650391 32.085938 L 89.650391 24.607422 C 89.650391 18.586569 87.717489 13.609708 83.853516 9.6777344 C 79.988689 5.7462011 74.977972 3.7792969 68.822266 3.7792969 z M 7.6054688 3.8125 C 5.4929355 3.8125 3.7792969 5.5242121 3.7792969 7.6367188 L 3.7792969 49.056641 C 3.7792969 51.169134 5.4929355 52.880859 7.6054688 52.880859 L 11.378906 52.880859 C 13.49144 52.880859 15.205078 51.169134 15.205078 49.056641 L 15.205078 36.064453 L 23.697266 36.064453 C 29.515972 36.064453 34.133535 34.587479 37.548828 31.632812 C 40.963695 28.678719 42.669922 24.785971 42.669922 19.955078 C 42.669922 15.147398 40.963695 11.254637 37.548828 8.2773438 C 34.133535 5.3004905 29.515972 3.8125 23.697266 3.8125 L 7.6054688 3.8125 z M 99.140625 3.8125 C 96.195892 3.8125 94.357278 7.0007013 95.830078 9.5507812 L 106.56836 28.144531 L 95.498047 47.128906 C 94.010994 49.678973 95.850801 52.880859 98.802734 52.880859 L 102.91406 52.880859 C 104.36841 52.880859 105.69674 52.05538 106.3418 50.751953 L 113.64648 35.996094 L 120.95117 50.751953 C 121.59651 52.05538 122.92455 52.880859 124.37891 52.880859 L 128.99805 52.880859 C 131.98601 52.880859 133.81887 49.609387 132.25977 47.060547 L 120.68945 28.144531 L 131.42773 9.5507812 C 132.90053 7.0007013 131.06192 3.8125 128.11719 3.8125 L 123.98633 3.8125 C 122.52491 3.8125 121.19266 4.6441646 120.55078 5.9570312 L 113.51172 20.359375 L 106.59961 5.9804688 C 105.96264 4.6553488 104.62269 3.8125 103.15234 3.8125 L 99.140625 3.8125 z M 166.63477 3.8125 C 164.52254 3.8125 162.8125 5.5242121 162.8125 7.6367188 L 162.8125 49.056641 C 162.8125 51.169134 164.52254 52.880859 166.63477 52.880859 L 170.41016 52.880859 C 172.52238 52.880859 174.23633 51.169134 174.23633 49.056641 L 174.23633 40.714844 L 173.15625 18.607422 L 173.35938 18.572266 L 184.16992 50.289062 C 184.6987 51.838502 186.15426 52.880859 187.79102 52.880859 L 190.00195 52.880859 C 191.63727 52.880859 193.09232 51.840875 193.62109 50.292969 L 204.56836 18.269531 L 204.76758 18.302734 L 203.68945 40.714844 L 203.68945 49.056641 C 203.68945 51.169134 205.4034 52.880859 207.51562 52.880859 L 211.29102 52.880859 C 213.40324 52.880859 215.11523 51.169134 215.11523 49.056641 L 215.11523 7.6367188 C 215.11523 5.5242121 213.40324 3.8125 211.29102 3.8125 L 202.86719 3.8125 C 201.20881 3.8125 199.73806 4.8811577 199.22656 6.4589844 L 188.96289 38.154297 L 188.75977 38.154297 L 178.625 6.4707031 C 178.11928 4.8862365 176.6446 3.8125 174.98047 3.8125 L 166.63477 3.8125 z M 145.14062 3.8554688 C 142.96356 3.8554688 141.19922 5.6199551 141.19922 7.796875 C 141.19922 9.9737949 144.82646 13.227422 149.08203 17.482422 C 153.33675 13.227422 156.9668 9.9737949 156.9668 7.796875 C 156.9668 5.6199551 155.2005 3.8554688 153.02344 3.8554688 C 150.84638 3.8554688 149.08203 5.6199551 149.08203 7.796875 C 149.08203 5.6199551 147.31782 3.8554688 145.14062 3.8554688 z M 68.822266 12.541016 C 71.832692 12.541016 74.1651 13.665603 75.816406 15.912109 C 77.46786 18.159056 78.292969 21.034143 78.292969 24.539062 L 78.292969 32.085938 C 78.292969 35.636244 77.473624 38.534823 75.833984 40.78125 C 74.193478 43.02825 71.878438 44.150391 68.890625 44.150391 C 65.812332 44.150391 63.448328 43.02825 61.796875 40.78125 C 60.145555 38.534823 59.318359 35.636244 59.318359 32.085938 L 59.318359 24.539062 C 59.318359 21.011956 60.132599 18.130371 61.761719 15.894531 C 63.390412 13.659118 65.743826 12.541016 68.822266 12.541016 z M 15.205078 12.574219 L 23.697266 12.574219 C 26.168679 12.574219 28.049544 13.271236 29.341797 14.664062 C 30.633344 16.057329 31.279297 17.842404 31.279297 20.021484 C 31.279297 22.156178 30.633344 23.904565 29.341797 25.263672 C 28.049544 26.623512 26.168679 27.300781 23.697266 27.300781 L 15.205078 27.300781 L 15.205078 12.574219 z M 141.08203 16.839844 L 141.08203 49.056641 C 141.08203 51.169134 142.79388 52.880859 144.90625 52.880859 L 153.02344 52.880859 C 155.13566 52.880859 156.84766 51.169134 156.84766 49.056641 L 156.84766 17.074219 C 156.26124 17.665525 155.64651 18.274816 155.00391 18.908203 C 154.47801 19.42847 153.93413 19.966338 153.38086 20.521484 L 149.08203 24.818359 L 144.78516 20.521484 C 144.23001 19.966338 143.68496 19.42847 143.1582 18.908203 C 142.4316 18.19067 141.73847 17.50463 141.08203 16.839844 z "
       transform="matrix(0.75000002,0,0,-0.75000002,700.29518,203.1578)"
       id="path14" /></g></svg>