<?xml version="1.0" encoding="UTF-8" standalone="no"?>
<!-- Created with Inkscape (http://www.inkscape.org/) -->

<svg
   xmlns:dc="http://purl.org/dc/elements/1.1/"
   xmlns:cc="http://creativecommons.org/ns#"
   xmlns:rdf="http://www.w3.org/1999/02/22-rdf-syntax-ns#"
   xmlns:svg="http://www.w3.org/2000/svg"
   xmlns="http://www.w3.org/2000/svg"
   xmlns:sodipodi="http://sodipodi.sourceforge.net/DTD/sodipodi-0.dtd"
   xmlns:inkscape="http://www.inkscape.org/namespaces/inkscape"
   version="1.1"
   id="svg2"
   xml:space="preserve"
   width="162.56537"
   height="37.795303"
   viewBox="0 0 162.56537 37.795303"
   sodipodi:docname="Logo-POXIM-KiCAD_PCB_sheet.svg"
   inkscape:version="0.92.2 5c3e80d, 2017-08-06"><metadata
     id="metadata8"><rdf:RDF><cc:Work
         rdf:about=""><dc:format>image/svg+xml</dc:format><dc:type
           rdf:resource="http://purl.org/dc/dcmitype/StillImage" /><dc:title></dc:title></cc:Work></rdf:RDF></metadata><defs
     id="defs6" /><sodipodi:namedview
     pagecolor="#ffffff"
     bordercolor="#666666"
     borderopacity="1"
     objecttolerance="10"
     gridtolerance="10"
     guidetolerance="10"
     inkscape:pageopacity="0"
     inkscape:pageshadow="2"
     inkscape:window-width="1439"
     inkscape:window-height="801"
     id="namedview4"
     showgrid="false"
     inkscape:zoom="4.5767602"
     inkscape:cx="86.709916"
     inkscape:cy="6.5404485"
     inkscape:window-x="0"
     inkscape:window-y="0"
     inkscape:window-maximized="0"
     inkscape:current-layer="g10"
     fit-margin-top="0"
     fit-margin-left="0"
     fit-margin-right="0"
     fit-margin-bottom="0" /><g
     id="g10"
     inkscape:groupmode="layer"
     inkscape:label="ink_ext_XXXXXX"
     transform="matrix(1.3333333,0,0,-1.3333333,-961.89122,261.42823)"><g
       id="g12"
       transform="matrix(0.00831236,0,0,0.00831236,721.41843,167.7247)"><path
         d="m 792.941,1777.59 h 589.439 c 171.53,0 302.11,47.14 391.8,141.52 89.64,94.33 134.48,215.55 134.48,363.71 0,151.24 -44.84,275.21 -134.48,371.91 -89.69,96.67 -220.27,145.03 -391.8,145.03 H 792.941 Z m 0,-608.16 V 267.727 C 792.941,121.109 674.082,2.25 527.461,2.25 H 265.484 C 118.863,2.25 0,121.109 0,267.727 V 3142.43 c 0,146.62 118.863,265.48 265.484,265.48 H 1382.38 c 403.85,0 724.31,-103.32 961.35,-309.93 237.01,-206.64 355.54,-476.8 355.54,-810.48 0,-335.29 -118.53,-605.45 -355.54,-810.48 -237.04,-205.07 -557.5,-307.59 -961.35,-307.59 H 792.941"
         style="fill:#100f0d;fill-opacity:1;fill-rule:nonzero;stroke:none"
         id="path14"
         inkscape:connector-curvature="0" /><path
         d="m 5171.65,1969.3 c 0,243.26 -57.3,442.85 -171.92,598.8 -114.61,155.92 -276.41,233.91 -485.35,233.91 -213.66,0 -377,-77.59 -490.04,-232.74 -113.07,-155.18 -169.58,-355.17 -169.58,-599.97 v -523.76 c 0,-246.41 57.31,-447.567 171.92,-603.481 114.62,-155.954 278.72,-233.907 492.37,-233.907 207.37,0 368,77.953 481.86,233.907 113.8,155.914 170.74,357.071 170.74,603.481 z m 788.26,-523.76 c 0,-419.5 -132.96,-765.282 -398.81,-1037.376 C 5295.22,136.023 4947.87,0 4519.05,0 4087.1,0 3737.01,136.023 3468.82,408.164 3200.59,680.258 3066.5,1026.04 3066.5,1445.54 v 519.09 c 0,417.88 133.69,763.29 401.15,1036.19 267.42,272.87 616.34,409.34 1046.73,409.34 427.24,0 774.98,-136.47 1043.22,-409.34 268.18,-272.9 402.31,-618.31 402.31,-1036.19 v -519.09"
         style="fill:#100f0d;fill-opacity:1;fill-rule:nonzero;stroke:none"
         id="path16"
         inkscape:connector-curvature="0" /><path
         d="m 7615.96,2259.43 488.58,999.58 c 44.55,91.12 137.1,148.9 238.53,148.9 h 286.58 c 204.38,0 332.11,-221.27 229.89,-398.26 L 8114.18,1719.12 8917.27,406.262 C 9025.48,229.359 8898.18,2.25 8690.8,2.25 h -320.59 c -100.94,0 -193.13,57.2383 -237.92,147.703 L 7625.32,1174.12 7118.34,149.953 C 7073.57,59.4883 6981.36,2.25 6880.42,2.25 h -285.29 c -204.88,0 -332.55,222.223 -229.34,399.211 l 768.33,1317.659 -745.37,1290.53 c -102.22,176.99 25.51,398.26 229.89,398.26 h 278.35 c 102.05,0 195.07,-58.5 239.28,-150.47 l 479.69,-998.01"
         style="fill:#100f0d;fill-opacity:1;fill-rule:nonzero;stroke:none"
         id="path18"
         inkscape:connector-curvature="0" /><path
         d="m 12135.2,3223.32 703.5,-2198.9 h 14 l 712.4,2199.8 c 35.5,109.51 137.5,183.69 252.6,183.69 h 584.7 c 146.6,0 265.4,-118.86 265.4,-265.48 V 267.727 C 14667.8,121.109 14549,2.25 14402.4,2.25 h -262 c -146.6,0 -265.5,118.859 -265.5,265.477 v 578.925 l 74.8,1555.458 -13.9,2.35 -759.7,-2222.589 C 13139.4,74.4375 13038.4,2.25 12924.9,2.25 h -153.5 c -113.6,0 -214.6,72.2891 -251.3,179.828 l -750.4,2201.322 -14,-2.33 74.9,-1534.418 V 267.727 C 11830.6,121.109 11711.7,2.25 11565.1,2.25 h -262 c -146.6,0 -265.4,118.859 -265.4,265.477 V 3142.43 c 0,146.62 118.8,265.48 265.4,265.48 h 579.2 c 115.5,0 217.8,-74.62 252.9,-184.59"
         style="fill:#100f0d;fill-opacity:1;fill-rule:nonzero;stroke:none"
         id="path20"
         inkscape:connector-curvature="0" /><path
         d="m 10084.8,2459.13 c -295.36,295.32 -547.14,521.07 -547.14,672.16 0,151.09 122.42,273.58 273.52,273.58 151.11,0 273.62,-122.49 273.62,-273.58 0,151.09 122.4,273.58 273.5,273.58 151.1,0 273.7,-122.49 273.7,-273.58 0,-151.09 -251.9,-376.84 -547.2,-672.16"
         style="fill:#a41579;fill-opacity:1;fill-rule:nonzero;stroke:none"
         id="path22"
         inkscape:connector-curvature="0" /><path
         d="m 10495.8,2360.16 c -36.5,-36.11 -74.3,-73.42 -112.7,-111.95 l -298.3,-298.27 -298.27,298.27 c -38.53,38.53 -76.3,75.84 -112.86,111.95 -50.43,49.8 -98.61,97.45 -144.17,143.59 V 267.727 C 9529.5,121.109 9648.36,2.25 9794.97,2.25 h 563.33 c 146.6,0 265.5,118.859 265.5,265.477 V 2487.42 c -40.7,-41.04 -83.4,-83.3 -128,-127.26"
         style="fill:#52afe6;fill-opacity:1;fill-rule:nonzero;stroke:none"
         id="path24"
         inkscape:connector-curvature="0" /></g></g></svg>