<?xml version="1.0" encoding="UTF-8" standalone="no"?>
<!-- Created with Inkscape (http://www.inkscape.org/) -->

<svg
   xmlns:dc="http://purl.org/dc/elements/1.1/"
   xmlns:cc="http://creativecommons.org/ns#"
   xmlns:rdf="http://www.w3.org/1999/02/22-rdf-syntax-ns#"
   xmlns:svg="http://www.w3.org/2000/svg"
   xmlns="http://www.w3.org/2000/svg"
   xmlns:sodipodi="http://sodipodi.sourceforge.net/DTD/sodipodi-0.dtd"
   xmlns:inkscape="http://www.inkscape.org/namespaces/inkscape"
   version="1.1"
   id="svg2"
   xml:space="preserve"
   width="37.795586"
   height="8.7871733"
   viewBox="0 0 37.795585 8.7871731"
   sodipodi:docname="Logo-POXIM-Silk_W10mm.svg"
   inkscape:version="0.92.2 5c3e80d, 2017-08-06"
   inkscape:export-filename="/Users/arthuradmiraal/Documents/POxiM/POxiM Electronics/POxiM-libraries/Graphics/POxiM logo/Logo-POXIM-Silk_W10mm_5000dpi.png"
   inkscape:export-xdpi="5000"
   inkscape:export-ydpi="5000"><metadata
     id="metadata8"><rdf:RDF><cc:Work
         rdf:about=""><dc:format>image/svg+xml</dc:format><dc:type
           rdf:resource="http://purl.org/dc/dcmitype/StillImage" /><dc:title></dc:title></cc:Work></rdf:RDF></metadata><defs
     id="defs6" /><sodipodi:namedview
     pagecolor="#ffffff"
     bordercolor="#666666"
     borderopacity="1"
     objecttolerance="10"
     gridtolerance="10"
     guidetolerance="10"
     inkscape:pageopacity="1"
     inkscape:pageshadow="2"
     inkscape:window-width="1439"
     inkscape:window-height="801"
     id="namedview4"
     showgrid="false"
     inkscape:zoom="17.955695"
     inkscape:cx="-24.392991"
     inkscape:cy="3.9883986"
     inkscape:window-x="0"
     inkscape:window-y="0"
     inkscape:window-maximized="0"
     inkscape:current-layer="g10"
     fit-margin-top="0"
     fit-margin-left="0"
     fit-margin-right="0"
     fit-margin-bottom="0" /><g
     id="g10"
     inkscape:groupmode="layer"
     inkscape:label="ink_ext_XXXXXX"
     transform="matrix(1.3333333,0,0,-1.3333333,-1024.2761,246.92422)"><path
       id="path24"
       style="fill:#000000;fill-opacity:1;fill-rule:nonzero;stroke:none;stroke-width:0.00193257"
       d="m 788.49105,183.16399 c -0.0705,-0.0698 -0.14359,-0.14188 -0.2178,-0.21635 l -0.57649,-0.57643 -0.57643,0.57643 c -0.0745,0.0745 -0.14745,0.14657 -0.21811,0.21635 -0.0975,0.0962 -0.19057,0.18833 -0.27862,0.2775 v -4.32128 c 0,-0.28335 0.22971,-0.51305 0.51305,-0.51305 h 1.08867 c 0.28332,0 0.5131,0.2297 0.5131,0.51305 v 4.28972 c -0.0787,-0.0793 -0.16118,-0.16098 -0.24737,-0.24594 m -0.79429,0.19127 c -0.5708,0.57073 -1.05739,1.00701 -1.05739,1.299 0,0.29199 0.23659,0.52871 0.5286,0.52871 0.29203,0 0.52879,-0.23672 0.52879,-0.52871 0,0.29199 0.23655,0.52871 0.52856,0.52871 0.29201,0 0.52895,-0.23672 0.52895,-0.52871 0,-0.29199 -0.48682,-0.72827 -1.05751,-1.299 m 3.96255,1.47686 1.35957,-4.24954 h 0.0271 l 1.37677,4.25127 c 0.0686,0.21164 0.26573,0.355 0.48817,0.355 h 1.12997 c 0.28332,0 0.51291,-0.22971 0.51291,-0.51306 v -5.55558 c 0,-0.28335 -0.22959,-0.51305 -0.51291,-0.51305 h -0.50633 c -0.28332,0 -0.5131,0.2297 -0.5131,0.51305 v 1.11882 l 0.14456,3.00603 -0.0269,0.005 -1.46818,-4.29531 c -0.0709,-0.20763 -0.26612,-0.34713 -0.48546,-0.34713 h -0.29666 c -0.21953,0 -0.41473,0.1397 -0.48565,0.34753 l -1.4502,4.25421 -0.0271,-0.005 0.14475,-2.96537 v -1.11882 c 0,-0.28335 -0.22978,-0.51305 -0.5131,-0.51305 h -0.50633 c -0.28332,0 -0.51291,0.2297 -0.51291,0.51305 v 5.55558 c 0,0.28335 0.22959,0.51306 0.51291,0.51306 h 1.11935 c 0.22321,0 0.42091,-0.14421 0.48874,-0.35673 m -8.73376,-1.86278 0.94421,1.93176 c 0.0861,0.1761 0.26496,0.28776 0.46098,0.28776 h 0.55384 c 0.39498,0 0.64183,-0.42762 0.44428,-0.76966 l -1.44046,-2.49405 1.55203,-2.53719 c 0.20912,-0.34188 -0.0369,-0.78079 -0.43767,-0.78079 h -0.61957 c -0.19507,0 -0.37324,0.11062 -0.4598,0.28545 l -0.97976,1.97928 -0.97977,-1.97928 c -0.0865,-0.17483 -0.26472,-0.28545 -0.4598,-0.28545 h -0.55134 c -0.39595,0 -0.64268,0.42947 -0.44322,0.77151 l 1.48486,2.54647 -1.44049,2.49405 c -0.19754,0.34204 0.0493,0.76966 0.44428,0.76966 h 0.53793 c 0.19722,0 0.37699,-0.11305 0.46243,-0.29079 l 0.92704,-1.92873 m -4.72381,-0.5607 c 0,0.47012 -0.11074,0.85584 -0.33225,1.15723 -0.22149,0.30133 -0.53418,0.45205 -0.93798,0.45205 -0.41291,0 -0.72858,-0.14995 -0.94703,-0.44979 -0.21852,-0.29989 -0.32773,-0.68639 -0.32773,-1.15949 v -1.0122 c 0,-0.47621 0.11076,-0.86496 0.33225,-1.16627 0.22151,-0.3014 0.53864,-0.45204 0.95154,-0.45204 0.40076,0 0.71119,0.15064 0.93123,0.45204 0.21993,0.30131 0.32997,0.69006 0.32997,1.16627 z m 1.52337,-1.0122 c 0,-0.81072 -0.25696,-1.47896 -0.77073,-2.00481 -0.51384,-0.52593 -1.18511,-0.7888 -2.01384,-0.7888 -0.83477,0 -1.51135,0.26287 -2.02965,0.7888 -0.51837,0.52585 -0.77751,1.19409 -0.77751,2.00481 v 1.00318 c 0,0.80758 0.25837,1.47511 0.77525,2.00251 0.51681,0.52734 1.19113,0.79108 2.02288,0.79108 0.82568,0 1.49771,-0.26374 2.0161,-0.79108 0.51828,-0.5274 0.7775,-1.19493 0.7775,-2.00251 v -1.00318 m -9.98555,0.64171 h 1.13913 c 0.3315,0 0.58385,0.0911 0.75719,0.2735 0.17323,0.1823 0.25989,0.41656 0.25989,0.70289 0,0.29229 -0.0867,0.53187 -0.25989,0.71875 -0.17334,0.18682 -0.42569,0.28028 -0.75719,0.28028 h -1.13913 z m 0,-1.17531 v -1.74261 c 0,-0.28335 -0.22971,-0.51306 -0.51306,-0.51306 h -0.50629 c -0.28336,0 -0.51307,0.22971 -0.51307,0.51306 v 5.55557 c 0,0.28336 0.22971,0.51306 0.51307,0.51306 h 2.15848 c 0.78047,0 1.39979,-0.19967 1.85788,-0.59896 0.45804,-0.39935 0.68711,-0.92145 0.68711,-1.56631 0,-0.64797 -0.22907,-1.17008 -0.68711,-1.56631 -0.45809,-0.39632 -1.07741,-0.59444 -1.85788,-0.59444 h -1.13913"
       inkscape:connector-curvature="0" /></g></svg>